<svg xmlns="http://www.w3.org/2000/svg" xmlns:xlink="http://www.w3.org/1999/xlink" width="59" height="59" viewBox="0 0 59 59">
  <defs>
    <filter id="Ellipse_154" x="0" y="0" width="59" height="59" filterUnits="userSpaceOnUse">
      <feOffset dy="3" input="SourceAlpha"/>
      <feGaussianBlur stdDeviation="3" result="blur"/>
      <feFlood flood-opacity="0.161"/>
      <feComposite operator="in" in2="blur"/>
      <feComposite in="SourceGraphic"/>
    </filter>
  </defs>
  <g id="Group_40" data-name="Group 40" transform="translate(-43 -198)">
    <g transform="matrix(1, 0, 0, 1, 43, 198)" filter="url(#Ellipse_154)">
      <circle id="Ellipse_154-2" data-name="Ellipse 154" cx="20.5" cy="20.5" r="20.5" transform="translate(9 6)" fill="#1dd1a1"/>
    </g>
    <path id="Icon_ionic-ios-star" data-name="Icon ionic-ios-star" d="M26.3,12.029H18.093L15.6,4.012a.883.883,0,0,0-1.7,0l-2.494,8.017H3.143a.932.932,0,0,0-.893.962.759.759,0,0,0,.017.162.942.942,0,0,0,.374.679l6.747,5.12L6.8,27.059A1.009,1.009,0,0,0,7.1,28.141a.834.834,0,0,0,.5.234,1.046,1.046,0,0,0,.558-.216L14.75,23.1l6.585,5.054a1,1,0,0,0,.558.216.775.775,0,0,0,.5-.234,1,1,0,0,0,.307-1.082l-2.589-8.107L26.8,13.784l.162-.15a1.04,1.04,0,0,0,.29-.643A.979.979,0,0,0,26.3,12.029Z" transform="translate(58.25 207.946)" fill="#fff"/>
  </g>
</svg>
