<svg xmlns="http://www.w3.org/2000/svg" xmlns:xlink="http://www.w3.org/1999/xlink" width="59" height="59" viewBox="0 0 59 59">
  <defs>
    <filter id="Ellipse_154" x="0" y="0" width="59" height="59" filterUnits="userSpaceOnUse">
      <feOffset dy="3" input="SourceAlpha"/>
      <feGaussianBlur stdDeviation="3" result="blur"/>
      <feFlood flood-opacity="0.161"/>
      <feComposite operator="in" in2="blur"/>
      <feComposite in="SourceGraphic"/>
    </filter>
  </defs>
  <g id="Group_40" data-name="Group 40" transform="translate(-43 -198)">
    <g transform="matrix(1, 0, 0, 1, 43, 198)" filter="url(#Ellipse_154)">
      <circle id="Ellipse_154-2" data-name="Ellipse 154" cx="20.5" cy="20.5" r="20.5" transform="translate(9 6)" fill="#1dd1a1"/>
    </g>
    <path id="Icon_ionic-ios-heart" data-name="Icon ionic-ios-heart" d="M20.357,3.938H20.3a6.356,6.356,0,0,0-5.307,2.9,6.356,6.356,0,0,0-5.307-2.9H9.632A6.316,6.316,0,0,0,3.375,10.25a13.6,13.6,0,0,0,2.67,7.413,46.794,46.794,0,0,0,8.949,8.62,46.794,46.794,0,0,0,8.949-8.62,13.6,13.6,0,0,0,2.67-7.413A6.316,6.316,0,0,0,20.357,3.938Z" transform="translate(57.561 209.602)" fill="#fff"/>
  </g>
</svg>
