<svg id="Group_178" data-name="Group 178" xmlns="http://www.w3.org/2000/svg" width="212.38" height="138.145" viewBox="0 0 212.38 138.145">
  <path id="Path_519" data-name="Path 519" d="M247.314,642.174H184.963s-1.264-18.537,6.214-18.747,6.635,8.215,16.009-3.37,20.749-10.954,22.223-4.108-2.844,12.323,5.055,10.638S253.739,629.324,247.314,642.174Z" transform="translate(-175.681 -504.333)" fill="#6c63ff"/>
  <path id="Path_520" data-name="Path 520" d="M313.466,641.821l-.21-.008c.491-12.2,3.047-20.046,5.1-24.475a22.219,22.219,0,0,1,4.409-6.775l.14.157a22.066,22.066,0,0,0-4.366,6.723C316.5,621.853,313.955,629.663,313.466,641.821Z" transform="translate(-274.061 -503.976)" fill="#f2f2f2"/>
  <path id="Path_521" data-name="Path 521" d="M410.079,699.372l-.2-.059a32.675,32.675,0,0,1,8.227-13.687l.141.156A32.455,32.455,0,0,0,410.079,699.372Z" transform="translate(-348.107 -561.502)" fill="#f2f2f2"/>
  <path id="Path_522" data-name="Path 522" d="M209.125,684.23l-.209-.029a22.941,22.941,0,0,0-2.064-13.409,18.464,18.464,0,0,0-3.257-4.752l.146-.152a18.694,18.694,0,0,1,3.3,4.811A23.152,23.152,0,0,1,209.125,684.23Z" transform="translate(-190.023 -546.374)" fill="#f2f2f2"/>
  <path id="Path_523" data-name="Path 523" d="M233.569,617.4H156.03l-.018-.263c-.045-.653-1.034-16.066,3.96-21.565a5.47,5.47,0,0,1,4-1.918,11.9,11.9,0,0,1,6.951,2.105c3.11,1.845,5.164,3.064,12.634-6.169,8.092-10,16.823-12.154,21.843-10.957a7.791,7.791,0,0,1,6.132,6,26.608,26.608,0,0,1,.264,7.749c-.17,2.323-.3,4.158.651,4.99.8.694,2.386.757,5,.2,5.322-1.135,12.749-.164,16.476,4.652,2.005,2.591,3.585,7.3-.276,15.025Zm-77.009-.564h76.66c2.878-5.838,2.968-10.77.258-14.272-3.42-4.418-10.594-5.581-15.913-4.446-2.843.607-4.537.506-5.491-.325-1.167-1.017-1.024-2.976-.842-5.456a26.136,26.136,0,0,0-.252-7.59,7.246,7.246,0,0,0-5.712-5.566c-4.859-1.159-13.346.965-21.274,10.763-7.776,9.611-10.118,8.222-13.36,6.3a11.3,11.3,0,0,0-6.647-2.027,4.926,4.926,0,0,0-3.6,1.733C155.9,600.9,156.449,614.756,156.559,616.84Z" transform="translate(-153.473 -479.281)" fill="#cfcce0"/>
  <path id="Path_524" data-name="Path 524" d="M742.249,481.556l-22.558-3.922c4.032-8.363,5.875-16.626,4.3-24.732l22.558,3.922A50.119,50.119,0,0,0,742.249,481.556Z" transform="translate(-585.536 -383.151)" fill="#f2f2f2"/>
  <rect id="Rectangle_230" data-name="Rectangle 230" width="11.862" height="0.552" transform="translate(143.111 75.181) rotate(9.864)" fill="#3f3d56"/>
  <rect id="Rectangle_231" data-name="Rectangle 231" width="11.862" height="0.552" transform="translate(142.733 77.355) rotate(9.864)" fill="#3f3d56"/>
  <rect id="Rectangle_232" data-name="Rectangle 232" width="11.862" height="0.552" transform="translate(142.355 79.529) rotate(9.864)" fill="#3f3d56"/>
  <rect id="Rectangle_233" data-name="Rectangle 233" width="11.862" height="0.552" transform="translate(141.977 81.704) rotate(9.864)" fill="#3f3d56"/>
  <rect id="Rectangle_234" data-name="Rectangle 234" width="11.862" height="0.552" transform="translate(141.599 83.878) rotate(9.864)" fill="#3f3d56"/>
  <rect id="Rectangle_235" data-name="Rectangle 235" width="11.862" height="0.552" transform="translate(141.221 86.052) rotate(9.864)" fill="#3f3d56"/>
  <rect id="Rectangle_236" data-name="Rectangle 236" width="11.862" height="0.552" transform="translate(140.843 88.226) rotate(9.864)" fill="#3f3d56"/>
  <rect id="Rectangle_237" data-name="Rectangle 237" width="11.862" height="0.552" transform="translate(140.465 90.401) rotate(9.864)" fill="#3f3d56"/>
  <path id="Path_525" data-name="Path 525" d="M785.249,515.556l-22.558-3.922c4.032-8.363,5.875-16.626,4.3-24.732l22.558,3.922A50.119,50.119,0,0,0,785.249,515.556Z" transform="translate(-618.49 -409.207)" fill="#f2f2f2"/>
  <rect id="Rectangle_238" data-name="Rectangle 238" width="11.862" height="0.552" transform="translate(153.158 83.125) rotate(9.864)" fill="#3f3d56"/>
  <rect id="Rectangle_239" data-name="Rectangle 239" width="11.862" height="0.552" transform="translate(152.78 85.299) rotate(9.864)" fill="#3f3d56"/>
  <rect id="Rectangle_240" data-name="Rectangle 240" width="11.862" height="0.552" transform="translate(152.401 87.473) rotate(9.864)" fill="#3f3d56"/>
  <rect id="Rectangle_241" data-name="Rectangle 241" width="11.862" height="0.552" transform="translate(152.023 89.648) rotate(9.864)" fill="#3f3d56"/>
  <rect id="Rectangle_242" data-name="Rectangle 242" width="11.862" height="0.552" transform="translate(151.645 91.822) rotate(9.864)" fill="#3f3d56"/>
  <rect id="Rectangle_243" data-name="Rectangle 243" width="11.862" height="0.552" transform="translate(151.267 93.996) rotate(9.864)" fill="#3f3d56"/>
  <rect id="Rectangle_244" data-name="Rectangle 244" width="11.862" height="0.552" transform="translate(150.889 96.17) rotate(9.864)" fill="#3f3d56"/>
  <rect id="Rectangle_245" data-name="Rectangle 245" width="11.862" height="0.552" transform="translate(150.511 98.345) rotate(9.864)" fill="#3f3d56"/>
  <path id="Path_526" data-name="Path 526" d="M747.252,563.276H707.015l-.008-.225L705.086,508.1h44.095Zm-39.785-.467H746.8l1.9-54.238H705.57Z" transform="translate(-574.344 -425.456)" fill="#3f3d56"/>
  <path id="Path_527" data-name="Path 527" d="M607.452,415.644h-35.83L569.9,366.378h39.275Z" transform="translate(-436.747 -280.777)" fill="#3f3d56"/>
  <g id="Group_177" data-name="Group 177" transform="translate(139.209 92.828)" opacity="0.2">
    <rect id="Rectangle_246" data-name="Rectangle 246" width="3.06" height="37.873" fill="#fff"/>
    <rect id="Rectangle_247" data-name="Rectangle 247" width="3.06" height="37.873" transform="translate(12.05)" fill="#fff"/>
    <rect id="Rectangle_248" data-name="Rectangle 248" width="3.06" height="37.873" transform="translate(24.101)" fill="#fff"/>
  </g>
  <rect id="Rectangle_249" data-name="Rectangle 249" width="7.651" height="58.913" transform="matrix(0.534, -0.845, 0.845, 0.534, 149.383, 67.702)" fill="#3f3d56"/>
  <path id="Path_528" data-name="Path 528" d="M885.369,444.98a8.986,8.986,0,0,0-13.7,8.895l2.382,1.506a7.09,7.09,0,1,1,6.771,4.281l2.382,1.506a8.986,8.986,0,0,0,2.161-16.187Z" transform="translate(-701.936 -376.013)" fill="#3f3d56"/>
  <rect id="Rectangle_250" data-name="Rectangle 250" width="212.38" height="0.467" transform="translate(0 137.498)" fill="#3f3d56"/>
  <path id="Path_529" data-name="Path 529" d="M616.276,402.865s9.112,6.776,5.374,7.944-8.411-3.972-8.177-5.374S616.276,402.865,616.276,402.865Z" transform="translate(-504.128 -344.805)" fill="#ffb8b8"/>
  <path id="Path_530" data-name="Path 530" d="M443.7,211.5l9.346,8.645-3.738,3.972L443,219.444Z" transform="translate(-339.497 -162.085)" fill="#575a89"/>
  <path id="Path_531" data-name="Path 531" d="M617.808,407.942,598.54,395.573c6.961-6.143,11.866-13.043,13.561-21.125l19.268,12.369a50.118,50.118,0,0,0-13.561,21.125Z" transform="translate(-492.691 -323.028)" fill="#6c63ff"/>
  <rect id="Rectangle_251" data-name="Rectangle 251" width="11.862" height="0.552" transform="translate(121.594 58.232) rotate(32.698)" fill="#3f3d56"/>
  <rect id="Rectangle_252" data-name="Rectangle 252" width="11.862" height="0.552" transform="translate(120.401 60.089) rotate(32.698)" fill="#3f3d56"/>
  <rect id="Rectangle_253" data-name="Rectangle 253" width="11.862" height="0.552" transform="translate(119.209 61.946) rotate(32.698)" fill="#3f3d56"/>
  <rect id="Rectangle_254" data-name="Rectangle 254" width="11.862" height="0.552" transform="translate(118.017 63.803) rotate(32.698)" fill="#3f3d56"/>
  <rect id="Rectangle_255" data-name="Rectangle 255" width="11.862" height="0.552" transform="translate(116.825 65.66) rotate(32.698)" fill="#3f3d56"/>
  <rect id="Rectangle_256" data-name="Rectangle 256" width="11.862" height="0.552" transform="translate(115.633 67.517) rotate(32.698)" fill="#3f3d56"/>
  <rect id="Rectangle_257" data-name="Rectangle 257" width="11.862" height="0.552" transform="translate(114.44 69.374) rotate(32.698)" fill="#3f3d56"/>
  <rect id="Rectangle_258" data-name="Rectangle 258" width="11.862" height="0.552" transform="translate(113.248 71.232) rotate(32.698)" fill="#3f3d56"/>
  <path id="Path_532" data-name="Path 532" d="M291.533,490.416l-3.546,7.461,9.92,2.374-.276-7.192Z" transform="translate(-220.701 -375.835)" fill="#ffb8b8"/>
  <path id="Path_533" data-name="Path 533" d="M455,529.668l1.168,8.177,9.579-3.5-4.206-5.841Z" transform="translate(-348.693 -405.021)" fill="#ffb8b8"/>
  <path id="Path_534" data-name="Path 534" d="M457.524,358.271s-1.468,9.4-1.069,13.87-1.175,23.331-1.175,23.331-7.045,7.663-8.644,16.415A73.056,73.056,0,0,1,441.62,427.9l8.3,2.7,16.45-31.144s11.8-25.819,10.625-28.278-3.01-12.37-3.01-12.37Z" transform="translate(-372.434 -310.63)" fill="#2f2e41"/>
  <path id="Path_535" data-name="Path 535" d="M423.395,659.024s-.01-4.212-1.5-2.394-6.338,5.329-3.481,7.784,19.543,15.765,20.441,11.875c.5-2.16-7.823-16.738-7.823-16.738s-2.779.174-2.971.887S423.395,659.024,423.395,659.024Z" transform="translate(-353.975 -538.931)" fill="#2f2e41"/>
  <path id="Path_536" data-name="Path 536" d="M403.308,40.5,397,47.743l6.308,6.542,5.841-8.878Z" transform="translate(-304.244 -31.038)" fill="#ffb8b8"/>
  <path id="Path_537" data-name="Path 537" d="M574.1,176.171a6.311,6.311,0,1,1-.115-1.194A6.311,6.311,0,0,1,574.1,176.171Z" transform="translate(-464.286 -166.241)" fill="#ffb8b8"/>
  <path id="Path_538" data-name="Path 538" d="M560.514,174a10.017,10.017,0,0,1,7.079-.183,7.639,7.639,0,0,1,3.52,2.019,3.856,3.856,0,0,1,.912,3.8l-1.909-1.444-.175,1.273c-1.26-1.966-3.654-2.82-5.874-3.545-.694-.227-1.616-.381-2.016.23-.169.257-.188.593-.367.844-.336.469-1.039.427-1.554.687a2.723,2.723,0,0,0-1.034,1.214c-.26.473-.145,1.136-.616,1.4-1.889,1.061-.775-3.024-.467-3.738A4.111,4.111,0,0,1,560.514,174Z" transform="translate(-461.166 -168.851)" fill="#2f2e41"/>
  <path id="Path_539" data-name="Path 539" d="M493,387.01s3.972,8.645,6.776,12.149,11.916,20.093,11.916,20.093-1.636,10.28,1.869,18.458a73.054,73.054,0,0,1,4.673,16.121l8.411-2.336-3.5-35.046s-4.439-28.037-6.776-29.439-9.346-8.645-9.346-8.645Z" transform="translate(-411.81 -326.029)" fill="#2f2e41"/>
  <path id="Path_540" data-name="Path 540" d="M507.272,226.039s-3.972-10.514-9.346-7.243-9.579,32.476-9.579,32.476-4.906,13.318,0,14.719,8.878,3.271,9.579.7.234-7.009,1.4-4.673.7,5.14,3.037,5.14,11.448-1.168,11.215-2.8S507.272,226.039,507.272,226.039Z" transform="translate(-406.573 -203.259)" fill="#575a89"/>
  <path id="Path_541" data-name="Path 541" d="M490.021,428.578s-3.037,9.112,1.168,9.112,3.6-9.2,3.6-9.2Z" transform="translate(-408.714 -364.444)" fill="#ffb8b8"/>
  <path id="Path_542" data-name="Path 542" d="M597.447,698.454s-2.336-3.5-2.57-1.168-2.336,7.944,1.4,8.411,25,2.336,23.6-1.4c-.778-2.075-15.771-9.625-15.771-9.625s-2.22,1.681-1.986,2.382S597.447,698.454,597.447,698.454Z" transform="translate(-489.272 -568.433)" fill="#2f2e41"/>
  <path id="Path_543" data-name="Path 543" d="M577.822,165.813s-1.107.951-2.544-.93a9.115,9.115,0,0,1-.96-1.64,6.416,6.416,0,0,0-4.336-1.862q-.165-.007-.336-.007c-3.037,0-3.738-2.1-3.738-2.1L561,160.907s.7-6.542,7.477-6.542,7.009,5.607,7.009,5.607S580.859,162.075,577.822,165.813Z" transform="translate(-463.922 -154.365)" fill="#575a89"/>
  <path id="Path_544" data-name="Path 544" d="M604.737,186a9.118,9.118,0,0,1-.96-1.64,6.416,6.416,0,0,0-4.336-1.862c1.708-.535,4.677-1.157,5.972.46C606.6,184.448,605.613,185.462,604.737,186Z" transform="translate(-493.381 -175.483)" opacity="0.2"/>
  <path id="Path_545" data-name="Path 545" d="M494.584,228.533s-6.308-1.168-7.944,4.439-5.14,22.2-5.14,22.2l2.1,17.056-.234,4.206h6.776v-4.439c0-.467.935-18.691.935-18.691l7.71-17.523S500.425,230.169,494.584,228.533Z" transform="translate(-402.996 -211.127)" fill="#575a89"/>
  <path id="Path_546" data-name="Path 546" d="M382.107,116l-7.71,15.187-.946,21.758,2.581-21.992Z" transform="translate(-286.197 -88.898)" opacity="0.2"/>
  <path id="Path_547" data-name="Path 547" d="M450.525,215.686l1.751,8.974L451.4,216.5Z" transform="translate(-345.264 -165.293)" opacity="0.2"/>
  <path id="Path_548" data-name="Path 548" d="M365.5,305.5l10.047,14.252-1.051,2.1Z" transform="translate(-280.104 -234.123)" opacity="0.2"/>
</svg>
