<svg xmlns="http://www.w3.org/2000/svg" width="194.389" height="71.791" viewBox="0 0 194.389 71.791">
  <g id="Group_157" data-name="Group 157" transform="translate(-404.713 -41.425)">
    <g id="Group_154" data-name="Group 154" transform="translate(464.322 53.495)">
      <text id="Footprint." transform="translate(-0.22 27.925)" fill="#fff" font-size="29" font-family="HelveticaNeue-Bold, Helvetica Neue" font-weight="700"><tspan x="0" y="0">Footprint</tspan><tspan y="0" fill="#fa9642">.</tspan></text>
      <text id="By_Datastreams" data-name="By Datastreams" transform="translate(0.779 45.535)" fill="#fff" font-size="10" font-family="FaunaOne, Fauna One"><tspan x="0" y="0">By Datastreams</tspan></text>
    </g>
    <g id="Group_156" data-name="Group 156" transform="translate(404.713 41.425)">
      <path id="Path_493" data-name="Path 493" d="M1575.111,457.846c2.277,6.741,1.321,11.751-2.141,20.678,0,0-2.141,6.741-2.961,8.79-6.1,14.711-17.809,9.7-15.668-1.685,1.139-7.333,4.964-9.428.865-19.175-4.1-5.83-3.1-9.838-.911-13.072C1559.762,446.87,1571.786,450.149,1575.111,457.846Z" transform="translate(-1541.265 -424.625)" fill="#fff" fill-rule="evenodd" opacity="0.5"/>
      <path id="Path_494" data-name="Path 494" d="M1488.437,320.935a7.424,7.424,0,0,1,2.05,7.606,3.161,3.161,0,0,1-5.329,1.457,7.369,7.369,0,0,1-2.1-7.561C1483.973,319.933,1486.387,319.25,1488.437,320.935Z" transform="translate(-1476.66 -304.156)" fill="#fff" fill-rule="evenodd" opacity="0.5"/>
      <path id="Path_495" data-name="Path 495" d="M1611.731,320.972a5.735,5.735,0,0,1,.865,6.1,2.489,2.489,0,0,1-4.327.592,5.736,5.736,0,0,1-.865-6.1A2.524,2.524,0,0,1,1611.731,320.972Z" transform="translate(-1591.802 -304.147)" fill="#fff" fill-rule="evenodd" opacity="0.5"/>
      <path id="Path_496" data-name="Path 496" d="M1712.115,346.072a4.452,4.452,0,0,1,.182,4.737,1.946,1.946,0,0,1-3.37.137,4.451,4.451,0,0,1-.182-4.737A1.93,1.93,0,0,1,1712.115,346.072Z" transform="translate(-1685.719 -327.471)" fill="#fff" fill-rule="evenodd" opacity="0.5"/>
      <path id="Path_497" data-name="Path 497" d="M1786.455,382.916a3.672,3.672,0,0,1-.182,3.962,1.588,1.588,0,0,1-2.778-.137,3.672,3.672,0,0,1,.182-3.962A1.589,1.589,0,0,1,1786.455,382.916Z" transform="translate(-1755.14 -361.673)" fill="#fff" fill-rule="evenodd" opacity="0.5"/>
      <path id="Path_498" data-name="Path 498" d="M1836.947,442.1a2.327,2.327,0,0,1-.5,2.505,1.048,1.048,0,0,1-1.776-.365,2.328,2.328,0,0,1,.5-2.5A1.032,1.032,0,0,1,1836.947,442.1Z" transform="translate(-1802.9 -416.717)" fill="#fff" fill-rule="evenodd" opacity="0.5"/>
      <path id="Path_499" data-name="Path 499" d="M1503,454l.472,1.1q.158-.138.318-.272A6.079,6.079,0,0,1,1503,454Z" transform="translate(-1495.454 -428.425)" fill="#fff"/>
      <path id="Path_500" data-name="Path 500" d="M1539.631,528.167c-.13.123-.259.247-.386.374q-.162.162-.319.327l.441,1.028A8.592,8.592,0,0,1,1539.631,528.167Z" transform="translate(-1528.774 -497.211)" fill="#fff"/>
      <path id="Path_501" data-name="Path 501" d="M1874.654,426l-.183.665c.209.124.418.25.624.381A5.917,5.917,0,0,0,1874.654,426Z" transform="translate(-1839.974 -402.456)" fill="#fff"/>
      <path id="Path_502" data-name="Path 502" d="M1853,506.354c.177-.085.34-.175.494-.267q-.174-.129-.351-.253Z" transform="translate(-1820.061 -476.498)" fill="#fff"/>
      <path id="Path_503" data-name="Path 503" d="M1849,516" transform="translate(-1816.351 -485.927)" fill="#fff"/>
      <g id="Group_151" data-name="Group 151" transform="translate(0 0)">
        <path id="Path_504" data-name="Path 504" d="M1409.253,499.341a17.667,17.667,0,0,1-.319-24.657q.157-.165.319-.327c.127-.127.256-.251.386-.374a12.014,12.014,0,0,1,1.55-3.35,5.4,5.4,0,0,1-4.072-1.2q-.16.135-.318.272-.584.51-1.138,1.063a22.745,22.745,0,0,0,0,32.167,22.84,22.84,0,0,0,5.117,3.854,23.14,23.14,0,0,1,.763-5.51A17.881,17.881,0,0,1,1409.253,499.341Z" transform="translate(-1399 -442.736)" fill="#fff"/>
        <path id="Path_505" data-name="Path 505" d="M1516.662,129.529l-.085-.083V117.788a16.288,16.288,0,0,0-32.577,0v.228a4.173,4.173,0,0,1,5.185-1.093,11.137,11.137,0,0,1,22.24.865v7.632a1.453,1.453,0,0,1,1.333,1.03,5.089,5.089,0,0,1,.211,2.21l0,.01c-.005.032-.011.063-.016.094-.022.123-.049.242-.082.357l-.012.044c-.005.017-.011.034-.016.052-.012.038-.024.076-.037.113-.006.018-.013.035-.019.053l-.034.088c-.019.048-.04.1-.061.144l0,.006a3.591,3.591,0,0,1-.257.465h0a4.194,4.194,0,0,1-1.385,1.293,17.9,17.9,0,0,1,2.022,1.742,17.691,17.691,0,0,1-4.556,28.286,16.292,16.292,0,0,1-2.689,6.345,22.751,22.751,0,0,0,10.836-38.222Z" transform="translate(-1477.833 -101.5)" fill="#fff"/>
      </g>
    </g>
  </g>
</svg>
