<svg xmlns="http://www.w3.org/2000/svg" xmlns:xlink="http://www.w3.org/1999/xlink" width="106" height="106" viewBox="0 0 106 106">
  <defs>
    <filter id="Ellipse_27" x="0" y="0" width="106" height="106" filterUnits="userSpaceOnUse">
      <feOffset dy="3" input="SourceAlpha"/>
      <feGaussianBlur stdDeviation="3" result="blur"/>
      <feFlood flood-opacity="0.161"/>
      <feComposite operator="in" in2="blur"/>
      <feComposite in="SourceGraphic"/>
    </filter>
  </defs>
  <g id="Group_179" data-name="Group 179" transform="translate(-135 -44)">
    <g transform="matrix(1, 0, 0, 1, 135, 44)" filter="url(#Ellipse_27)">
      <circle id="Ellipse_27-2" data-name="Ellipse 27" cx="44" cy="44" r="44" transform="translate(9 6)" fill="#1167b1"/>
    </g>
    <g id="Group_160" data-name="Group 160" transform="translate(166.611 60)">
      <path id="Path_493" data-name="Path 493" d="M1574.163,457.515c2.182,6.46,1.266,11.261-2.051,19.815,0,0-2.052,6.46-2.837,8.424-5.849,14.1-17.066,9.3-15.014-1.615,1.091-7.027,4.757-9.035.829-18.375-3.928-5.587-2.968-9.428-.873-12.526C1559.455,447,1570.977,450.139,1574.163,457.515Z" transform="translate(-1541.729 -425.68)" fill="#fff" fill-rule="evenodd" opacity="0.5"/>
      <path id="Path_494" data-name="Path 494" d="M1488.2,320.9a7.115,7.115,0,0,1,1.964,7.289,3.03,3.03,0,0,1-5.107,1.4,7.061,7.061,0,0,1-2.008-7.245A3.072,3.072,0,0,1,1488.2,320.9Z" transform="translate(-1476.914 -304.818)" fill="#fff" fill-rule="evenodd" opacity="0.5"/>
      <path id="Path_495" data-name="Path 495" d="M1611.528,320.932a5.5,5.5,0,0,1,.829,5.849,2.385,2.385,0,0,1-4.146.567,5.5,5.5,0,0,1-.829-5.849A2.419,2.419,0,0,1,1611.528,320.932Z" transform="translate(-1592.431 -304.809)" fill="#fff" fill-rule="evenodd" opacity="0.5"/>
      <path id="Path_496" data-name="Path 496" d="M1711.95,346.034a4.266,4.266,0,0,1,.174,4.539,1.865,1.865,0,0,1-3.23.131,4.266,4.266,0,0,1-.174-4.539A1.849,1.849,0,0,1,1711.95,346.034Z" transform="translate(-1686.655 -328.209)" fill="#fff" fill-rule="evenodd" opacity="0.5"/>
      <path id="Path_497" data-name="Path 497" d="M1786.31,382.879a3.519,3.519,0,0,1-.174,3.8,1.522,1.522,0,0,1-2.663-.131,3.519,3.519,0,0,1,.175-3.8A1.522,1.522,0,0,1,1786.31,382.879Z" transform="translate(-1756.302 -362.522)" fill="#fff" fill-rule="evenodd" opacity="0.5"/>
      <path id="Path_498" data-name="Path 498" d="M1836.845,442.074a2.231,2.231,0,0,1-.48,2.4,1,1,0,0,1-1.7-.349,2.23,2.23,0,0,1,.48-2.4A.989.989,0,0,1,1836.845,442.074Z" transform="translate(-1804.218 -417.746)" fill="#fff" fill-rule="evenodd" opacity="0.5"/>
      <path id="Path_501" data-name="Path 501" d="M1874.647,426l-.176.637c.2.119.4.24.6.365A5.7,5.7,0,0,0,1874.647,426Z" transform="translate(-1841.413 -403.439)" fill="#fff"/>
      <path id="Path_503" data-name="Path 503" d="M1849,516" transform="translate(-1817.713 -487.181)" fill="#fff"/>
      <g id="Group_151" data-name="Group 151" transform="translate(0 0)">
        <path id="Path_504" data-name="Path 504" d="M1408.825,498.093a16.93,16.93,0,0,1-.306-23.629q.151-.158.306-.314c.122-.122.245-.241.37-.358a11.51,11.51,0,0,1,1.485-3.21,5.17,5.17,0,0,1-3.9-1.152q-.153.129-.3.261-.559.489-1.09,1.018a21.8,21.8,0,0,0,0,30.825,21.891,21.891,0,0,0,4.9,3.693,22.17,22.17,0,0,1,.731-5.28A17.134,17.134,0,0,1,1408.825,498.093Z" transform="translate(-1399 -443.85)" fill="#fff"/>
        <path id="Path_505" data-name="Path 505" d="M1515.3,128.36l-.082-.08V117.109a15.609,15.609,0,0,0-31.218,0v.218a4,4,0,0,1,4.969-1.047,10.672,10.672,0,0,1,21.312.829v7.313a1.392,1.392,0,0,1,1.278.987,4.875,4.875,0,0,1,.2,2.118v.01c0,.03-.01.06-.016.09-.021.118-.047.232-.078.343l-.012.042-.016.05c-.011.037-.023.073-.036.108-.006.017-.012.034-.018.051s-.021.056-.032.084q-.028.069-.059.138l0,.006a3.463,3.463,0,0,1-.246.445h0a4.022,4.022,0,0,1-1.327,1.239,17.154,17.154,0,0,1,1.938,1.669,16.953,16.953,0,0,1-4.366,27.106,15.611,15.611,0,0,1-2.577,6.081A21.8,21.8,0,0,0,1515.3,128.36Z" transform="translate(-1478.09 -101.5)" fill="#fff"/>
      </g>
    </g>
  </g>
</svg>
