<svg xmlns="http://www.w3.org/2000/svg" width="55.595" height="87.738" viewBox="0 0 55.595 87.738">
  <g id="Group_159" data-name="Group 159" transform="translate(-1399 -101.5)">
    <path id="Path_506" data-name="Path 506" d="M1580.157,459.611c2.783,8.238,1.614,14.361-2.616,25.271,0,0-2.616,8.238-3.618,10.743-7.459,17.979-21.764,11.856-19.148-2.06,1.391-8.962,6.067-11.522,1.057-23.434-5.009-7.125-3.785-12.023-1.113-15.975C1561.4,446.2,1576.094,450.2,1580.157,459.611Z" transform="translate(-139.793 -317.51)" fill="#89b4d8" fill-rule="evenodd"/>
    <path id="Path_507" data-name="Path 507" d="M1489.7,321.141a9.073,9.073,0,0,1,2.505,9.3c-1.113,3.062-4.063,3.841-6.512,1.781a9,9,0,0,1-2.561-9.24C1484.248,319.916,1487.2,319.081,1489.7,321.141Z" transform="translate(-76.311 -199.135)" fill="#89b4d8" fill-rule="evenodd"/>
    <path id="Path_508" data-name="Path 508" d="M1612.807,321.188a7.009,7.009,0,0,1,1.058,7.459c-1.169,2.282-3.507,2.616-5.288.724a7.01,7.01,0,0,1-1.058-7.459A3.084,3.084,0,0,1,1612.807,321.188Z" transform="translate(-189.452 -199.126)" fill="#89b4d8" fill-rule="evenodd"/>
    <path id="Path_509" data-name="Path 509" d="M1713,346.278a5.441,5.441,0,0,1,.223,5.789,2.379,2.379,0,0,1-4.119.167,5.441,5.441,0,0,1-.223-5.789A2.358,2.358,0,0,1,1713,346.278Z" transform="translate(-281.737 -222.045)" fill="#89b4d8" fill-rule="evenodd"/>
    <path id="Path_510" data-name="Path 510" d="M1787.222,383.114a4.488,4.488,0,0,1-.223,4.843,1.941,1.941,0,0,1-3.4-.167,4.488,4.488,0,0,1,.223-4.843A1.942,1.942,0,0,1,1787.222,383.114Z" transform="translate(-349.951 -255.652)" fill="#89b4d8" fill-rule="evenodd"/>
    <path id="Path_511" data-name="Path 511" d="M1837.492,442.266a2.845,2.845,0,0,1-.612,3.061,1.281,1.281,0,0,1-2.171-.445,2.844,2.844,0,0,1,.613-3.061A1.261,1.261,0,0,1,1837.492,442.266Z" transform="translate(-396.881 -309.739)" fill="#89b4d8" fill-rule="evenodd"/>
    <path id="Path_512" data-name="Path 512" d="M1503,454l.577,1.346c.128-.112.258-.223.388-.332A7.424,7.424,0,0,1,1503,454Z" transform="translate(-94.778 -321.244)" fill="none"/>
    <path id="Path_513" data-name="Path 513" d="M1539.788,528.167c-.159.15-.317.3-.472.457q-.2.2-.39.4l.538,1.257A10.5,10.5,0,0,1,1539.788,528.167Z" transform="translate(-127.519 -388.835)" fill="none"/>
    <path id="Path_514" data-name="Path 514" d="M1874.7,426l-.224.813c.257.151.511.306.763.466A7.208,7.208,0,0,0,1874.7,426Z" transform="translate(-433.311 -295.727)" fill="none"/>
    <path id="Path_515" data-name="Path 515" d="M1853,506.469c.216-.1.416-.213.6-.327q-.213-.157-.428-.309Z" transform="translate(-413.744 -368.482)" fill="none"/>
    <path id="Path_516" data-name="Path 516" d="M1849,516" transform="translate(-410.099 -377.747)" fill="none"/>
    <g id="Group_158" data-name="Group 158" transform="translate(1399 101.5)">
      <path id="Path_517" data-name="Path 517" d="M1411.531,505.985a21.591,21.591,0,0,1-.39-30.135q.192-.2.39-.4c.155-.155.313-.307.472-.457a14.682,14.682,0,0,1,1.893-4.094,6.594,6.594,0,0,1-4.976-1.469q-.195.164-.388.332-.713.624-1.391,1.3a27.8,27.8,0,0,0,0,39.312,27.926,27.926,0,0,0,6.254,4.71,28.3,28.3,0,0,1,.933-6.734A21.856,21.856,0,0,1,1411.531,505.985Z" transform="translate(-1399 -436.807)" fill="#00559f"/>
      <path id="Path_518" data-name="Path 518" d="M1523.917,135.755c-.034-.034-.07-.067-.1-.1V121.406a19.906,19.906,0,0,0-39.812,0v.278a5.1,5.1,0,0,1,6.336-1.335,13.611,13.611,0,0,1,27.181,1.057v9.327a1.775,1.775,0,0,1,1.629,1.258,6.214,6.214,0,0,1,.258,2.7l0,.012c-.006.039-.013.077-.02.115-.027.15-.06.3-.1.437-.005.018-.01.036-.015.054s-.014.042-.02.063c-.015.047-.029.093-.045.138-.008.022-.016.043-.024.065s-.027.071-.041.107q-.036.088-.075.176l0,.007a4.389,4.389,0,0,1-.313.568h0a5.127,5.127,0,0,1-1.692,1.58,21.883,21.883,0,0,1,2.471,2.128,21.621,21.621,0,0,1-5.568,34.569,19.906,19.906,0,0,1-3.286,7.755,27.8,27.8,0,0,0,13.243-46.713Z" transform="translate(-1476.463 -101.5)" fill="#00559f"/>
    </g>
  </g>
</svg>
